<?xml version="1.0" encoding="utf-8"?>
<!-- Generator: Adobe Illustrator 22.0.1, SVG Export Plug-In . SVG Version: 6.00 Build 0)  -->
<svg version="1.0" id="Warstwa_1" xmlns="http://www.w3.org/2000/svg" xmlns:xlink="http://www.w3.org/1999/xlink" x="0px" y="0px"
	 viewBox="0 0 22.8 24.3" style="enable-background:new 0 0 22.8 24.3;" xml:space="preserve">
<style type="text/css">
	.st0{fill:#333333;}
	.st1{fill:#1D1D1D;}
	.st2{fill:#3F3F3F;}
	.st3{fill:none;stroke:#222323;stroke-width:0.85;stroke-miterlimit:10;}
	.st4{fill:#222323;}
	.st5{fill:#333333;stroke:#FFFFFF;stroke-miterlimit:10;}
	.st6{fill:#F3CA35;}
	.st7{fill:none;stroke:#222323;stroke-width:0.75;stroke-miterlimit:10;}
	.st8{fill:none;stroke:#222323;stroke-width:0.75;stroke-miterlimit:10;stroke-dasharray:2.9104,0.9701;}
	.st9{fill:none;stroke:#222323;stroke-width:0.75;stroke-miterlimit:10;stroke-dasharray:2.7131,0.9044;}
	.st10{fill:#353535;}
	.st11{fill:#1F1F1F;}
	.st12{fill:none;stroke:#1F1F1F;stroke-width:2;stroke-miterlimit:10;}
	.st13{fill:none;stroke:#1F1F1F;stroke-width:1.2977;stroke-miterlimit:10;}
	.st14{fill:none;stroke:#1F1F1F;stroke-width:1.3017;stroke-miterlimit:10;}
	.st15{fill:none;stroke:#BB4291;stroke-width:0.15;stroke-miterlimit:10;}
	.st16{fill:none;stroke:#333333;stroke-width:0.25;stroke-miterlimit:10;}
</style>
<path class="st16" d="M22.6,24.2l0-3c0-0.3,0-0.8,0-0.8c-0.1-1.9-1.3-2.2-1.5-2.4c0,0-0.1-0.1-0.3-0.2c-0.6-0.3-2.1-1.1-3.7-1.6
	c-2.1-0.7-3.2-1-3.2-2.2c0-1.3-0.3-1.2,0.4-2c0.7-0.8,0.9-2,0.9-2c0.1-0.8,0.2-0.9,0.5-1.3c0.3-0.5,0.4-1.1,0.4-1.4
	c0-0.3,0.1-0.8-0.3-0.8c0,0,0.4-1.6,0.1-2.7c-0.3-1.1-0.8-3.2-4.5-3.4C7.6,0.5,7.1,2.6,6.9,3.7C6.6,4.9,6.9,6.4,6.9,6.4
	C6.5,6.5,6.6,7,6.6,7.3c0,0.3,0.1,1,0.4,1.4C7.3,9.2,7.4,9.3,7.6,10c0,0,0.2,1.2,0.9,2c0.7,0.8,0.4,0.7,0.4,2c0,1.3-1.1,1.5-3.2,2.2
	c-1.6,0.5-3.1,1.3-3.7,1.6C1.9,17.9,1.8,18,1.8,18c-0.2,0.2-1.5,0.5-1.5,2.4c0,0,0,0.4,0,0.8l0,2.9"/>
</svg>
